<?xml version="1.0" standalone="no"?>
<!DOCTYPE svg PUBLIC "-//W3C//DTD SVG 20010904//EN"
 "http://www.w3.org/TR/2001/REC-SVG-20010904/DTD/svg10.dtd">
<svg version="1.0" xmlns="http://www.w3.org/2000/svg"
 width="300.000000pt" height="248.000000pt" viewBox="0 0 300.000000 248.000000"
 preserveAspectRatio="xMidYMid meet">
<metadata>
Created by potrace 1.10, written by Peter Selinger 2001-2011
</metadata>
<g transform="translate(0.000000,248.000000) scale(0.100000,-0.100000)"
fill="#000000" stroke="none">
<path d="M1775 2432 c-32 -15 -829 -472 -1230 -706 -49 -29 -111 -65 -137 -79
-50 -29 -88 -90 -88 -141 l0 -27 54 30 c29 17 56 31 59 31 6 0 67 -106 67
-117 0 -5 -25 -21 -55 -38 -30 -16 -55 -33 -55 -38 0 -5 23 -47 50 -94 55 -93
59 -107 31 -98 -10 3 -37 1 -60 -4 -82 -18 -147 -84 -157 -157 l-5 -39 17 33
c37 72 124 122 212 122 36 0 44 -5 65 -35 23 -34 23 -37 10 -101 -12 -56 -20
-73 -54 -106 -48 -47 -86 -125 -95 -194 l-6 -49 27 53 c36 69 102 134 172 168
45 22 74 29 145 32 96 5 145 -8 222 -56 l39 -24 -22 30 c-68 96 -217 153 -323
124 -21 -6 -38 -7 -38 -2 0 21 88 136 142 184 108 98 286 166 430 166 87 0
188 -27 283 -75 104 -52 195 -128 180 -148 -6 -8 -25 -34 -44 -60 -28 -38 -41
-47 -75 -52 -101 -17 -173 -68 -212 -150 -35 -73 -31 -99 6 -43 51 76 130 118
223 118 63 0 133 -24 169 -57 17 -15 17 -18 -3 -49 -11 -18 -24 -47 -29 -65
-9 -30 -8 -29 33 17 22 26 59 55 82 65 52 24 129 24 185 -1 l45 -20 -39 35
c-45 40 -85 50 -163 42 -52 -5 -57 -4 -80 23 -13 16 -52 43 -85 59 l-60 29 42
42 c23 23 72 56 108 73 61 29 76 32 162 32 86 0 101 -3 162 -32 83 -39 144
-99 187 -183 32 -63 33 -64 28 -25 -3 22 -8 54 -12 71 -7 30 -6 31 50 49 63
19 146 16 193 -9 l25 -13 -27 -18 c-29 -19 -76 -92 -76 -117 0 -9 22 7 53 37
42 43 62 55 104 64 56 11 101 7 145 -15 38 -20 44 -17 22 7 -23 26 -90 58
-122 59 l-23 0 23 31 c18 23 23 44 23 87 0 55 -5 66 -137 292 -281 485 -312
539 -410 710 -56 96 -103 177 -105 179 -2 3 -21 -5 -42 -17 -43 -25 -41 -26
-86 52 -18 32 -24 51 -17 54 7 2 22 12 34 21 l22 18 -21 11 c-40 22 -96 23
-138 4z m25 -174 c16 -29 30 -58 30 -64 0 -5 -34 -30 -76 -53 l-77 -44 -18 24
c-28 37 -55 102 -44 106 6 2 39 21 75 43 36 21 68 39 72 40 4 0 21 -24 38 -52z
m-265 -159 c21 -33 36 -62 34 -63 -2 -2 -39 -24 -82 -49 l-77 -46 -24 37 c-35
57 -48 83 -43 89 5 4 149 91 154 92 1 1 18 -26 38 -60z m-265 -155 c21 -36 29
-59 23 -65 -6 -6 -41 -28 -78 -50 -77 -45 -74 -45 -119 33 l-27 47 23 14 c44
28 133 77 140 77 3 0 21 -25 38 -56z m666 -152 c16 -9 16 -10 -4 -21 -12 -7
-26 -29 -33 -54 l-12 -42 -9 35 c-5 19 -19 43 -30 53 l-21 18 21 15 c12 8 24
31 28 52 l7 37 18 -42 c9 -22 25 -45 35 -51z m-933 -2 l36 -60 -37 -24 c-39
-24 -118 -66 -126 -66 -10 0 -67 103 -62 115 3 9 137 92 152 95 1 0 18 -27 37
-60z m-267 -152 c16 -29 30 -56 32 -59 1 -4 -33 -27 -77 -52 l-81 -45 -19 26
c-23 34 -53 93 -49 97 11 11 145 85 154 85 6 0 24 -24 40 -52z m641 35 c-4 -3
-10 -3 -14 0 -3 4 0 7 7 7 7 0 10 -3 7 -7z m105 -152 c14 -26 14 -32 2 -42 -8
-6 -14 -18 -14 -25 0 -8 -4 -14 -10 -14 -5 0 -10 6 -10 14 0 8 -7 21 -15 29
-13 13 -13 16 0 27 8 7 15 19 15 26 0 23 14 16 32 -15z m633 9 c3 -5 1 -10 -4
-10 -6 0 -11 5 -11 10 0 6 2 10 4 10 3 0 8 -4 11 -10z m-1332 -168 c-5 -12 -7
-12 -15 2 -11 20 1 44 12 25 5 -6 6 -19 3 -27z m1523 -105 c16 -9 16 -11 0
-23 -10 -7 -24 -29 -31 -50 l-12 -37 -13 37 c-6 20 -20 42 -30 48 -17 11 -17
13 5 30 12 9 25 32 29 50 l7 33 14 -39 c8 -22 22 -44 31 -49z"/>
<path d="M2265 822 c-96 -6 -147 -30 -176 -85 l-11 -20 28 20 c93 65 211 54
292 -26 17 -18 32 -27 32 -19 0 25 -40 78 -72 97 -18 11 -37 23 -43 28 -5 4
-28 7 -50 5z"/>
<path d="M195 496 c-51 -23 -77 -60 -83 -116 -8 -84 19 -110 152 -145 84 -21
109 -42 87 -69 -17 -20 -82 -20 -136 -1 -22 8 -45 15 -51 15 -11 0 -59 -78
-52 -85 2 -3 33 -12 68 -21 81 -21 193 -15 238 11 42 25 66 77 59 127 -8 63
-49 96 -143 118 -79 19 -104 31 -104 51 0 40 67 46 147 13 29 -12 32 -12 45 9
43 65 43 66 -4 87 -51 23 -176 27 -223 6z"/>
<path d="M527 493 c-9 -8 -9 -335 -1 -386 l7 -37 53 0 53 0 3 72 3 72 58 -72
58 -72 64 0 c36 0 65 3 65 7 0 4 -19 32 -43 62 -24 31 -60 79 -80 107 l-37 52
73 83 c114 132 110 119 29 119 l-70 0 -58 -72 -59 -73 -3 73 -3 72 -53 0 c-29
0 -56 -3 -59 -7z"/>
<path d="M946 448 c15 -29 49 -92 75 -141 46 -82 49 -91 49 -162 l0 -75 60 0
60 0 0 71 c0 68 2 74 76 215 l76 144 -66 0 -66 0 -35 -70 c-19 -38 -39 -70
-43 -70 -4 0 -24 32 -45 70 l-38 70 -65 0 -64 0 26 -52z"/>
<path d="M1540 285 l0 -215 55 0 55 0 0 80 0 80 100 0 100 0 0 50 0 49 -97 3
-98 3 0 30 0 30 113 3 112 3 0 49 0 50 -170 0 -170 0 0 -215z"/>
<path d="M1930 285 l0 -215 55 0 55 0 0 215 0 215 -55 0 -55 0 0 -215z"/>
<path d="M2110 285 l0 -215 175 0 175 0 0 50 0 50 -115 0 -115 0 0 165 0 165
-60 0 -60 0 0 -215z"/>
<path d="M2510 285 l0 -215 55 0 55 0 0 105 c0 58 3 105 8 105 4 0 28 -34 52
-75 24 -41 48 -75 52 -75 4 0 26 32 49 70 23 39 45 73 50 76 5 3 9 -42 9 -100
l0 -106 55 0 55 0 0 215 0 216 -57 -3 -56 -3 -48 -80 c-27 -44 -52 -81 -56
-82 -5 -2 -31 35 -58 82 l-49 85 -58 0 -58 0 0 -215z"/>
</g>
</svg>
